<svg width="600" height="600" viewBox="0 0 600 600" fill="none" xmlns="http://www.w3.org/2000/svg">
<g clip-path="url(#clip0_1_2)">
<rect width="600" height="600" fill="white"/>
<path d="M298.331 315.988C298.331 315.988 300.063 304.28 288.99 299.226C277.917 294.172 262.586 300.904 262.586 300.904L278.25 315.988H298.331Z" fill="#D9423D" stroke="#243746" stroke-width="4" stroke-linecap="round" stroke-linejoin="round"/>
<path d="M337.989 293.751C337.989 293.751 346.359 276.413 367.378 267.534C388.397 258.654 405.736 263.708 405.736 263.708L382.407 276.996L355.317 293.751H337.989Z" fill="#D9423D" stroke="#243746" stroke-width="4" stroke-linecap="round" stroke-linejoin="round"/>
<path d="M337.989 293.751C337.989 293.751 347.481 308.517 372.129 316.939C396.776 325.361 406.857 311.746 406.857 311.746L387.033 299.113L356.438 293.751H337.989Z" fill="#D9423D" stroke="#243746" stroke-width="4" stroke-linecap="round" stroke-linejoin="round"/>
<path d="M298.331 315.988C298.331 315.988 310.663 330.53 310.663 348.931C310.663 367.333 298.331 381.875 298.331 381.875H278.25L262.586 367.333C262.586 367.333 274.918 348.931 274.918 330.53C274.918 312.129 262.586 300.904 262.586 300.904L278.25 315.988H298.331Z" fill="#D9423D" stroke="#243746" stroke-width="4" stroke-linecap="round" stroke-linejoin="round"/>
<path d="M262.586 367.333C262.586 367.333 260.854 379.041 271.927 384.096C283.001 389.15 298.331 381.875 298.331 381.875L282.667 367.333H262.586Z" fill="#D9423D" stroke="#243746" stroke-width="4" stroke-linecap="round" stroke-linejoin="round"/>
<path d="M278.25 315.988C278.25 315.988 290.582 330.53 290.582 348.931C290.582 367.333 278.25 381.875 278.25 381.875" stroke="#243746" stroke-width="4" stroke-linecap="round" stroke-linejoin="round"/>
<path d="M262.586 300.904C262.586 300.904 274.918 312.129 274.918 330.53C274.918 348.931 262.586 367.333 262.586 367.333" stroke="#243746" stroke-width="4" stroke-linecap="round" stroke-linejoin="round"/>
<path d="M337.989 293.751L315.621 305.56" stroke="#243746" stroke-width="4" stroke-linecap="round" stroke-linejoin="round"/>
<path d="M337.989 293.751L325.111 312.701" stroke="#243746" stroke-width="4" stroke-linecap="round" stroke-linejoin="round"/>
<path d="M298.331 315.988L325.111 312.701" stroke="#243746" stroke-width="4" stroke-linecap="round" stroke-linejoin="round"/>
<path d="M355.317 293.751L365.628 307.889" stroke="#243746" stroke-width="4" stroke-linecap="round" stroke-linejoin="round"/>
<path d="M382.407 276.996L387.033 299.113" stroke="#243746" stroke-width="4" stroke-linecap="round" stroke-linejoin="round"/>
<path d="M367.378 267.534L372.129 316.939" stroke="#243746" stroke-width="4" stroke-linecap="round" stroke-linejoin="round"/>
<path d="M355.317 293.751L346.93 282.242" stroke="#243746" stroke-width="4" stroke-linecap="round" stroke-linejoin="round"/>
<path d="M315.621 305.56L310.663 348.931" stroke="#243746" stroke-width="4" stroke-linecap="round" stroke-linejoin="round"/>
<path d="M325.111 312.701L319.516 348.931" stroke="#243746" stroke-width="4" stroke-linecap="round" stroke-linejoin="round"/>
<path d="M346.93 282.242L351.411 244.247" stroke="#243746" stroke-width="4" stroke-linecap="round" stroke-linejoin="round"/>
<path d="M337.989 293.751L294.761 280.471C294.761 280.471 305.967 268.125 337.989 268.125C370.012 268.125 379.368 293.751 379.368 293.751" stroke="#243746" stroke-width="4" stroke-linecap="round" stroke-linejoin="round"/>
<circle cx="351.411" cy="282.242" r="3.36109" fill="#243746"/>
<path d="M387.033 260.212L391.514 268.125" stroke="#D9423D" stroke-width="4" stroke-linecap="round" stroke-linejoin="round"/>
<path d="M401.053 255.731L405.534 263.644" stroke="#D9423D" stroke-width="4" stroke-linecap="round" stroke-linejoin="round"/>
<path d="M415.073 263.644L410.592 271.557" stroke="#D9423D" stroke-width="4" stroke-linecap="round" stroke-linejoin="round"/>
<path d="M420.035 276.996L415.554 284.909" stroke="#D9423D" stroke-width="4" stroke-linecap="round" stroke-linejoin="round"/>
<path d="M424.997 293.751L420.516 301.664" stroke="#D9423D" stroke-width="4" stroke-linecap="round" stroke-linejoin="round"/>
<path d="M274.918 268.125L279.399 276.038" stroke="#D9423D" stroke-width="4" stroke-linecap="round" stroke-linejoin="round"/>
<path d="M262.586 280.471L267.067 288.384" stroke="#D9423D" stroke-width="4" stroke-linecap="round" stroke-linejoin="round"/>
<path d="M255.284 296.633L259.765 304.546" stroke="#D9423D" stroke-width="4" stroke-linecap="round" stroke-linejoin="round"/>
<path d="M255.284 315.988L259.765 323.901" stroke="#D9423D" stroke-width="4" stroke-linecap="round" stroke-linejoin="round"/>
<path d="M255.284 337.072L259.765 344.985" stroke="#D9423D" stroke-width="4" stroke-linecap="round" stroke-linejoin="round"/>
<path d="M262.586 358.156L267.067 366.069" stroke="#D9423D" stroke-width="4" stroke-linecap="round" stroke-linejoin="round"/>
<path d="M274.918 376.943L279.399 384.856" stroke="#D9423D" stroke-width="4" stroke-linecap="round" stroke-linejoin="round"/>
<path d="M396.903 266.459L392.422 274.372L405.736 284.909L410.217 276.996L396.903 266.459Z" fill="#243746" stroke="#243746" stroke-width="4" stroke-linecap="round" stroke-linejoin="round"/>
<path d="M387.033 268.125L382.552 276.038" stroke="#243746" stroke-width="4" stroke-linecap="round" stroke-linejoin="round"/>
<path d="M396.903 266.459L392.422 258.546" stroke="#243746" stroke-width="4" stroke-linecap="round" stroke-linejoin="round"/>
<path d="M405.736 284.909L410.217 292.822" stroke="#243746" stroke-width="4" stroke-linecap="round" stroke-linejoin="round"/>
<path d="M392.422 274.372L387.941 282.285" stroke="#243746" stroke-width="4" stroke-linecap="round" stroke-linejoin="round"/>
<text x="300" y="440" text-anchor="middle" font-family="Arial, sans-serif" font-weight="bold" font-size="48" fill="#243746">LOBSTER LAGER</text>
<text x="300" y="480" text-anchor="middle" font-family="Arial, sans-serif" font-size="24" fill="#D9423D">Hold my claw.</text>
</g>
<defs>
<clipPath id="clip0_1_2">
<rect width="600" height="600" fill="white"/>
</clipPath>
</defs>
</svg>